# xmcd CD database file
#
# Track frame offsets:
#	150
#	14582
#	33269
#	48396
#	64143
#	79155
#	96608
#	113414
#	127356
#	142415
#	157733
#	174931
#	190854
#	206943
#
# Disc length: 3027 seconds
#
# Revision: 0
# Processed by: cddbd v1.5.2PL0 Copyright (c) Steve Scherf et al.
# Submitted via: CDex 1.50
#
DISCID=cb0bd10e
DTITLE=Andrea Berg - Abenteuer
DYEAR=2011
DGENRE=Country
TTITLE0=Piraten wie wir 
TTITLE1=Lebenslänglich 
TTITLE2=Flieg mit mir fort
TTITLE3=Herztatoo
TTITLE4=Seelenverwandt
TTITLE5=Ich schieß dich auf den Mond
TTITLE6=Das kann kein Zufall sein
TTITLE7=Lieber Gott
TTITLE8=Dein Engel
TTITLE9=Über alle sieben Meere
TTITLE10=Einmal Himmel und zurück
TTITLE11=Brennendes Herz
TTITLE12=Du bist gegangen
TTITLE13=Ist es zu spät
EXTD=YEAR: 2011
EXTT0=
EXTT1=
EXTT2=
EXTT3=
EXTT4=
EXTT5=
EXTT6=
EXTT7=
EXTT8=
EXTT9=
EXTT10=
EXTT11=
EXTT12=
EXTT13=
PLAYORDER=
